<svg width="27" height="28" viewBox="0 0 27 28" fill="none" xmlns="http://www.w3.org/2000/svg">
<path d="M13.5 0.4375C6.04234 0.4375 0 6.50781 0 14C0 21.4922 6.04234 27.5625 13.5 27.5625C20.9577 27.5625 27 21.4922 27 14C27 6.50781 20.9577 0.4375 13.5 0.4375ZM13.5 24.9375C7.49577 24.9375 2.6129 20.032 2.6129 14C2.6129 7.96797 7.49577 3.0625 13.5 3.0625C19.5042 3.0625 24.3871 7.96797 24.3871 14C24.3871 20.032 19.5042 24.9375 13.5 24.9375ZM18.2903 8.3125C16.1238 8.3125 14.371 10.0734 14.371 12.25C14.371 14.4266 16.1238 16.1875 18.2903 16.1875C20.4569 16.1875 22.2097 14.4266 22.2097 12.25C22.2097 10.0734 20.4569 8.3125 18.2903 8.3125ZM18.2903 14.4375C17.0873 14.4375 16.1129 13.4586 16.1129 12.25C16.1129 11.5063 16.5103 10.8773 17.0764 10.4836C17.022 10.6258 16.9839 10.7734 16.9839 10.9375C16.9839 11.6648 17.5663 12.25 18.2903 12.25C19.0143 12.25 19.5968 11.6648 19.5968 10.9375C19.5968 10.7789 19.5587 10.6258 19.5042 10.4836C20.0704 10.8773 20.4677 11.5063 20.4677 12.25C20.4677 13.4586 19.4933 14.4375 18.2903 14.4375ZM12.629 12.25C12.629 10.0734 10.8762 8.3125 8.70968 8.3125C6.54315 8.3125 4.79032 10.0734 4.79032 12.25C4.79032 14.4266 6.54315 16.1875 8.70968 16.1875C10.8762 16.1875 12.629 14.4266 12.629 12.25ZM6.53226 12.25C6.53226 11.5063 6.92964 10.8773 7.49577 10.4836C7.44133 10.6258 7.40323 10.7734 7.40323 10.9375C7.40323 11.6648 7.98569 12.25 8.70968 12.25C9.43367 12.25 10.0161 11.6648 10.0161 10.9375C10.0161 10.7789 9.97802 10.6258 9.92359 10.4836C10.4897 10.8773 10.8871 11.5063 10.8871 12.25C10.8871 13.4586 9.9127 14.4375 8.70968 14.4375C7.50665 14.4375 6.53226 13.4586 6.53226 12.25ZM16.9839 19.25H10.0161C9.29758 19.25 8.70968 19.8406 8.70968 20.5625C8.70968 21.2844 9.29758 21.875 10.0161 21.875H16.9839C17.7024 21.875 18.2903 21.2844 18.2903 20.5625C18.2903 19.8406 17.7024 19.25 16.9839 19.25Z" fill="#FDBD39"/>
</svg>
