<svg width="27" height="28" viewBox="0 0 27 28" fill="none" xmlns="http://www.w3.org/2000/svg">
<path d="M13.5 0.4375C6.04234 0.4375 0 6.50781 0 14C0 21.4922 6.04234 27.5625 13.5 27.5625C20.9577 27.5625 27 21.4922 27 14C27 6.50781 20.9577 0.4375 13.5 0.4375ZM13.5 24.9375C7.49577 24.9375 2.6129 20.032 2.6129 14C2.6129 7.96797 7.49577 3.0625 13.5 3.0625C19.5042 3.0625 24.3871 7.96797 24.3871 14C24.3871 20.032 19.5042 24.9375 13.5 24.9375ZM11.6601 13.0211C12.0847 12.5945 12.0847 11.9 11.6601 11.4734L10.6857 10.5L11.6601 9.52109C12.0847 9.09453 12.0847 8.4 11.6601 7.97344C11.2355 7.54688 10.5442 7.54688 10.1196 7.97344L9.14516 8.95234L8.17621 7.97891C7.75161 7.55234 7.06028 7.55234 6.63569 7.97891C6.21109 8.40547 6.21109 9.1 6.63569 9.52656L7.61008 10.5055L6.63569 11.4844C6.21109 11.9109 6.21109 12.6055 6.63569 13.032C7.06028 13.4586 7.75161 13.4586 8.17621 13.032L9.14516 12.0586L10.1141 13.032C10.5442 13.4531 11.23 13.4531 11.6601 13.0211ZM20.3698 7.97891C19.9452 7.55234 19.2538 7.55234 18.8292 7.97891L17.8548 8.95234L16.8859 7.97891C16.4613 7.55234 15.77 7.55234 15.3454 7.97891C14.9208 8.40547 14.9208 9.1 15.3454 9.52656L16.3198 10.5055L15.3454 11.4844C14.9208 11.9109 14.9208 12.6055 15.3454 13.032C15.77 13.4586 16.4613 13.4586 16.8859 13.032L17.8548 12.0586L18.8238 13.032C19.2484 13.4586 19.9397 13.4586 20.3643 13.032C20.7889 12.6055 20.7889 11.9109 20.3643 11.4844L19.3954 10.5L20.3698 9.52109C20.7889 9.09453 20.7889 8.40547 20.3698 7.97891ZM13.5 14.875C11.5784 14.875 10.0161 16.4445 10.0161 18.375C10.0161 20.3055 11.5784 21.875 13.5 21.875C15.4216 21.875 16.9839 20.3055 16.9839 18.375C16.9839 16.4445 15.4216 14.875 13.5 14.875Z" fill="#FF0000"/>
</svg>
