<svg xmlns="http://www.w3.org/2000/svg" version="1.1" xmlns:xlink="http://www.w3.org/1999/xlink" xmlns:svgjs="http://svgjs.com/svgjs" width="28" height="28"><svg width="28" height="28" viewBox="0 0 28 28" fill="none" xmlns="http://www.w3.org/2000/svg">
<path d="M26.4198 12.4452H25.2437C22.4777 12.4452 21.092 9.09434 23.048 7.13426L23.8793 6.30025C24.1533 6.00535 24.3025 5.61538 24.2953 5.21247C24.2881 4.80957 24.1252 4.42517 23.8408 4.14026C23.5564 3.85535 23.1728 3.69217 22.7707 3.68508C22.3686 3.678 21.9795 3.82756 21.6853 4.10227L20.8535 4.93465C18.8975 6.89418 15.5535 5.50615 15.5535 2.73448V1.55592C15.5535 1.14326 15.3899 0.74751 15.0988 0.455718C14.8076 0.163927 14.4126 0 14.0008 0C13.589 0 13.1941 0.163927 12.9029 0.455718C12.6117 0.74751 12.4481 1.14326 12.4481 1.55592V2.73503C12.4481 5.5067 9.10417 6.89472 7.14813 4.93519L6.31638 4.10227C6.02216 3.82756 5.63303 3.678 5.23095 3.68508C4.82887 3.69217 4.44523 3.85535 4.16084 4.14026C3.87644 4.42517 3.7135 4.80957 3.70633 5.21247C3.69915 5.61538 3.84831 6.00535 4.12238 6.30025L4.95468 7.13426C6.91072 9.09434 5.52501 12.4452 2.75905 12.4452H1.58182C1.37551 12.4413 1.17049 12.4787 0.978746 12.5551C0.787007 12.6315 0.612397 12.7455 0.46512 12.8904C0.317844 13.0352 0.200856 13.208 0.120994 13.3987C0.0411328 13.5893 0 13.794 0 14.0008C0 14.2076 0.0411328 14.4123 0.120994 14.603C0.200856 14.7936 0.317844 14.9664 0.46512 15.1113C0.612397 15.2561 0.787007 15.3701 0.978746 15.4465C1.17049 15.523 1.37551 15.5603 1.58182 15.5565H2.75796C5.52392 15.5565 6.90963 18.9078 4.95359 20.8679L4.12238 21.7014C3.851 21.9968 3.70409 22.3859 3.71237 22.7873C3.72066 23.1888 3.88349 23.5715 4.16682 23.8554C4.45016 24.1393 4.83205 24.3025 5.23266 24.3108C5.63327 24.3191 6.02158 24.1719 6.31638 23.8999L7.14813 23.0659C9.10417 21.1058 12.4481 22.4944 12.4481 25.2661V26.4441C12.4481 26.8567 12.6117 27.2525 12.9029 27.5443C13.1941 27.8361 13.589 28 14.0008 28C14.4126 28 14.8076 27.8361 15.0988 27.5443C15.3899 27.2525 15.5535 26.8567 15.5535 26.4441V25.2672C15.5535 22.4955 18.8975 21.1069 20.8535 23.067L21.6853 23.8999C21.9801 24.1719 22.3684 24.3191 22.769 24.3108C23.1696 24.3025 23.5515 24.1393 23.8348 23.8554C24.1181 23.5715 24.281 23.1888 24.2893 22.7873C24.2975 22.3859 24.1506 21.9968 23.8793 21.7014L23.047 20.8679C21.0909 18.9078 22.4766 15.5565 25.2426 15.5565H26.4182C26.6245 15.5603 26.8295 15.523 27.0213 15.4465C27.213 15.3701 27.3876 15.2561 27.5349 15.1113C27.6822 14.9664 27.7991 14.7936 27.879 14.603C27.9589 14.4123 28 14.2076 28 14.0008C28 13.794 27.9589 13.5893 27.879 13.3987C27.7991 13.208 27.6822 13.0352 27.5349 12.8904C27.3876 12.7455 27.213 12.6315 27.0213 12.5551C26.8295 12.4787 26.6245 12.4413 26.4182 12.4452H26.4198ZM12.2544 14.8761C11.7362 14.8761 11.2297 14.7222 10.7989 14.4337C10.3681 14.1453 10.0323 13.7353 9.83407 13.2556C9.63579 12.7759 9.58391 12.2481 9.685 11.7389C9.78608 11.2297 10.0356 10.7619 10.4019 10.3948C10.7683 10.0277 11.2351 9.77765 11.7433 9.67636C12.2514 9.57507 12.7782 9.62706 13.2569 9.82575C13.7356 10.0244 14.1447 10.3609 14.4326 10.7926C14.7204 11.2243 14.8741 11.7318 14.8741 12.251C14.8741 12.9472 14.598 13.615 14.1068 14.1073C13.6155 14.5996 12.9491 14.8761 12.2544 14.8761V14.8761ZM16.6205 17.9387C16.3615 17.9387 16.1082 17.8618 15.8928 17.7175C15.6774 17.5733 15.5095 17.3683 15.4104 17.1285C15.3112 16.8886 15.2853 16.6247 15.3358 16.3701C15.3864 16.1155 15.5111 15.8816 15.6943 15.6981C15.8775 15.5145 16.1109 15.3895 16.365 15.3389C16.6191 15.2882 16.8824 15.3142 17.1218 15.4136C17.3611 15.5129 17.5657 15.6811 17.7096 15.897C17.8535 16.1128 17.9304 16.3666 17.9304 16.6262C17.9304 16.9743 17.7924 17.3082 17.5467 17.5543C17.3011 17.8005 16.9679 17.9387 16.6205 17.9387Z" fill="url(#paint0_radial)"></path>
<defs>
<radialGradient id="SvgjsRadialGradient1000" cx="0" cy="0" r="1" gradientUnits="userSpaceOnUse" gradientTransform="translate(14 14) rotate(90) scale(14)">
<stop offset="0.432292" stop-color="#A259FF"></stop>
<stop offset="1" stop-color="#3391FF"></stop>
</radialGradient>
</defs>
</svg><style>@media (prefers-color-scheme: light) { :root { filter: none; } }
</style></svg>