<?xml version="1.0" standalone="no"?>
<!DOCTYPE svg PUBLIC "-//W3C//DTD SVG 20010904//EN"
 "http://www.w3.org/TR/2001/REC-SVG-20010904/DTD/svg10.dtd">
<svg version="1.0" xmlns="http://www.w3.org/2000/svg"
 width="700.000000pt" height="700.000000pt" viewBox="0 0 700.000000 700.000000"
 preserveAspectRatio="xMidYMid meet">
<metadata>
Created by potrace 1.14, written by Peter Selinger 2001-2017
</metadata>
<g transform="translate(0.000000,700.000000) scale(0.100000,-0.100000)"
fill="#000000" stroke="none">
<path d="M3395 6985 c-140 -44 -242 -154 -274 -295 -5 -24 -10 -138 -11 -254
0 -116 -3 -220 -5 -231 -40 -199 -92 -304 -215 -434 -95 -101 -264 -192 -405
-217 -22 -3 -49 -8 -60 -11 -45 -9 -178 -3 -247 12 -174 36 -271 97 -478 300
-147 144 -201 185 -275 207 -55 16 -137 20 -189 7 -203 -48 -330 -229 -304
-434 14 -104 47 -155 213 -325 187 -192 239 -264 283 -400 31 -95 39 -157 36
-262 -10 -366 -270 -676 -622 -744 -48 -9 -145 -14 -280 -14 -137 0 -226 -5
-263 -14 -114 -26 -207 -103 -260 -213 -31 -63 -34 -75 -33 -163 0 -84 4 -103
30 -160 50 -106 144 -186 256 -215 35 -10 122 -15 277 -16 200 -1 237 -4 317
-24 255 -64 453 -252 539 -509 65 -194 50 -408 -41 -590 -48 -94 -74 -126
-244 -301 -81 -82 -154 -166 -163 -185 -42 -92 -46 -110 -43 -192 3 -98 6
-109 41 -177 78 -155 258 -236 435 -196 78 17 136 59 280 201 130 128 228 214
245 214 3 0 22 10 43 23 84 52 225 88 347 88 323 0 603 -184 728 -478 44 -104
56 -196 60 -448 3 -208 5 -235 25 -285 82 -207 327 -306 524 -212 95 45 163
118 200 212 16 44 21 83 24 190 10 374 12 394 34 465 79 250 253 430 495 513
33 11 74 23 90 26 17 3 44 8 60 11 113 20 295 -6 412 -60 109 -50 155 -86 323
-250 87 -85 175 -162 200 -175 164 -84 370 -45 479 90 106 132 121 309 38 450
-11 19 -87 103 -168 185 -237 242 -308 382 -313 620 -8 298 168 589 429 715
147 70 161 72 617 83 119 3 130 5 192 36 284 140 301 527 29 688 -74 43 -128
51 -351 53 -219 1 -292 8 -389 39 -227 72 -408 257 -488 494 -50 152 -54 321
-9 470 38 130 109 233 277 404 161 164 180 187 208 268 84 238 -87 496 -338
510 -149 9 -217 -27 -403 -211 -80 -79 -165 -158 -190 -177 -77 -58 -204 -116
-287 -132 -16 -3 -39 -7 -53 -10 -30 -7 -198 -8 -208 -1 -4 2 -28 7 -53 10
-100 13 -247 81 -339 154 -151 122 -250 290 -280 477 -5 33 -10 154 -10 268
-2 270 -20 335 -119 433 -68 68 -156 106 -256 109 -45 2 -97 -3 -120 -10z
m-150 -2418 c106 -29 186 -78 275 -167 129 -128 188 -261 195 -435 11 -254
-120 -484 -347 -608 -135 -74 -325 -94 -479 -50 -46 13 -113 40 -148 60 -84
47 -198 161 -244 244 -62 110 -79 178 -81 309 -1 128 4 162 35 246 120 321
461 493 794 401z m1046 -1426 c60 -27 129 -96 159 -157 35 -72 35 -209 1 -278
-62 -125 -183 -197 -322 -190 -112 6 -237 100 -279 212 -29 74 -24 184 10 255
25 54 100 133 139 149 88 36 99 38 171 34 48 -2 92 -11 121 -25z"/>
</g>
</svg>
